<svg id="レイヤー_1" data-name="レイヤー 1" xmlns="http://www.w3.org/2000/svg" viewBox="0 0 240 240"><defs><style>.cls-1{fill:none;stroke:#000;stroke-miterlimit:10;}</style></defs><title>アートボード 2</title><path class="cls-1" d="M55.5,130.69c-2.91,0-4.65-3.15-4.65-7.26s2.13-8.28,5-11.43a22.92,22.92,0,0,1-4.56,1.2,1.2,1.2,0,0,1-.45-.09c-.24-.15-1.17-1-1.17-1.5a.34.34,0,0,1,.09-.24.44.44,0,0,1,.21-.06c.27,0,.66.15,1,.15.09,0,.15,0,.21,0,2.37-.48,6.15-1.44,6.81-2a.73.73,0,0,1,.48-.18,1.41,1.41,0,0,1,1.26,1.11.83.83,0,0,1-.39.63,16.52,16.52,0,0,0-6.6,12.42c0,4.41,1.95,5.43,2.67,5.43,6.36,0,9.3-14.76,9.3-15.93,0-.33,0-.57,0-.78s.06-.93,1-.93a.82.82,0,0,1,.93.78c.15,1.68.93,8.34,3.09,10.2a1.36,1.36,0,0,1,.6,1.11c0,.63-.42,1.38-1,1.38-1.14,0-2.67-3-3.69-7.86C64.17,123,60.87,130.69,55.5,130.69Z"/><path class="cls-1" d="M85.92,131.35c-.75,0-1.14-.12-1.14-.3s.45-.45,1.41-.66c2.43-.51,10.53-2.4,10.53-7.59,0-2.31-2.16-3.27-4.59-3.27a10.08,10.08,0,0,0-1.89.18,14.46,14.46,0,0,0-8.13,5.55,1.1,1.1,0,0,1-.81.39c-.09,0-1,0-1-1.2a1.26,1.26,0,0,1,.3-.84c1.92-2.19,2.91-2.91,9.66-12.54-1.26.36-3.33.9-5.52,1.44a2.64,2.64,0,0,1-.63.09,2.1,2.1,0,0,1-1.8-1.71.26.26,0,0,1,.15-.27h.06c.18,0,.63.12,1.14.12A68.15,68.15,0,0,0,91.35,109a1.56,1.56,0,0,1,.66-.18c.45,0,1.38.48,1.38,1,0,.3-.3.63-.63,1-2.07,2.73-4.44,5.91-7,9.21A12.75,12.75,0,0,1,92.43,118c3.15,0,6.48,1.44,6.48,4.92,0,6.42-8.64,8.25-12.63,8.46Z"/><path class="cls-1" d="M107.88,125c0-.54.18-.81.42-.81s.57.27.78.75a9.22,9.22,0,0,0,2.22,3.15,15.17,15.17,0,0,0,2.16-1.77,1,1,0,0,1,.63-.3.27.27,0,0,1,.3.3c0,.54-2.07,4.38-3.06,4.38-1.38,0-3.36-3.84-3.45-5.46Zm6.51,2.91c0-.15.12-.27.33-.27a1.2,1.2,0,0,1,.6.21,10.65,10.65,0,0,0,4.35.93,2.18,2.18,0,0,0,2-2.22c0-3.12-4.35-5.73-5.1-7.53a1.14,1.14,0,0,1-.12-.51c0-.39.21-.69.54-.69s.54.18.84.63c.81,1.29,5.82,4.47,5.82,8.07a3.85,3.85,0,0,1-3.75,4.08C118,130.63,114.39,128.92,114.39,127.93Zm4-17.64c-.27-.18-.39-.36-.39-.54a1,1,0,0,1,.84-.75c1,0,4.38,3.09,5.28,4.71a.69.69,0,0,1,.12.42,1.67,1.67,0,0,1-.3.84c-.21.39-3.33,1.29-4,1.29-.3,0-.48-.09-.48-.27s.18-.39.57-.66a18.29,18.29,0,0,0,1.86-1.38A13,13,0,0,0,118.35,110.3Zm10.29,5.31a18.49,18.49,0,0,0-2.43-2.76.61.61,0,0,1-.18-.45.73.73,0,0,1,.72-.72.81.81,0,0,1,.48.15c.24.15,2.85,2.46,2.85,3.21a.9.9,0,0,1-.84.9A.73.73,0,0,1,128.64,115.61Zm2,12.75c-.27,0-.48-.15-.63-.57a12.41,12.41,0,0,0-3.3-4.89.68.68,0,0,1-.33-.54c0-.45.66-.84,1.14-.84a.48.48,0,0,1,.36.12c3,2.64,4.08,4.95,4.08,5.52C132,128.05,130.89,128.35,130.65,128.35Zm.33-14.28a22.17,22.17,0,0,0-2.58-2.79.51.51,0,0,1-.21-.39.85.85,0,0,1,.84-.75.7.7,0,0,1,.51.21c2.7,2.31,2.82,2.64,2.82,3a.91.91,0,0,1-.9.93A.58.58,0,0,1,131,114.08Z"/><path class="cls-1" d="M145.92,131.35c-.75,0-1.14-.12-1.14-.3s.45-.45,1.41-.66c2.43-.51,10.53-2.4,10.53-7.59,0-2.31-2.16-3.27-4.59-3.27a10.08,10.08,0,0,0-1.89.18,14.46,14.46,0,0,0-8.13,5.55,1.1,1.1,0,0,1-.81.39c-.09,0-1,0-1-1.2a1.26,1.26,0,0,1,.3-.84c1.92-2.19,2.91-2.91,9.66-12.54-1.26.36-3.33.9-5.52,1.44a2.64,2.64,0,0,1-.63.09,2.1,2.1,0,0,1-1.8-1.71.26.26,0,0,1,.15-.27h.06c.18,0,.63.12,1.14.12a68.15,68.15,0,0,0,7.68-1.71,1.56,1.56,0,0,1,.66-.18c.45,0,1.38.48,1.38,1,0,.3-.3.63-.63,1-2.07,2.73-4.44,5.91-7,9.21a12.75,12.75,0,0,1,6.69-2.13c3.15,0,6.48,1.44,6.48,4.92,0,6.42-8.64,8.25-12.63,8.46Z"/><path class="cls-1" d="M175.11,118.88s0,0,0,.06a.34.34,0,0,0,.09.21c1.38,1.23,9.66,9.51,9.66,11.88,0,.93-1,1.2-1.23,1.2-.42,0-.72-.42-.84-.81-1-2.76-7.08-9.39-9.33-11.31a1.54,1.54,0,0,1-.6-1.17c0-.75.66-1.08.93-1.32,6.33-6.06,8.34-8.25,8.34-9.27,0-.12,0-.18,0-.27a.25.25,0,0,1,.18-.27.23.23,0,0,1,.15,0c.51,0,1.74.72,1.74,1.62a1.86,1.86,0,0,1-.45,1A95.23,95.23,0,0,1,175.11,118.88Zm12.09-2.67a.7.7,0,0,1-.6-.3,22.45,22.45,0,0,0-2.55-2.52.54.54,0,0,1-.21-.45.84.84,0,0,1,.81-.78c.39,0,2.37,1.71,3.3,2.7a.56.56,0,0,1,.15.42,1.08,1.08,0,0,1-.27.66A.93.93,0,0,1,187.2,116.21Zm2.16-1.74a.62.62,0,0,1-.48-.24,25.63,25.63,0,0,0-2.76-2.55.54.54,0,0,1-.21-.45.76.76,0,0,1,.72-.75c.6,0,3.51,2.58,3.54,2.61a.63.63,0,0,1,.15.39,1.09,1.09,0,0,1-1,1Z"/></svg>